<svg width="72" height="24" viewBox="0 0 72 24" fill="none" xmlns="http://www.w3.org/2000/svg">
<path d="M0.472 23C0.472 21.784 0.685333 20.696 1.112 19.736C1.56 18.776 2.104 17.9333 2.744 17.208C3.384 16.4613 4.30133 15.5333 5.496 14.424C6.328 13.656 6.75467 13.2613 6.776 13.24C8.14133 11.9387 9.13333 10.7227 9.752 9.592C10.392 8.46133 10.712 7.36267 10.712 6.296C10.712 4.888 10.4027 3.71467 9.784 2.776C9.18667 1.816 8.184 1.336 6.776 1.336C5.90133 1.336 5.12267 1.54933 4.44 1.976C3.75733 2.40267 3.29867 2.94667 3.064 3.608C3.448 4.01333 3.64 4.48267 3.64 5.016C3.64 5.37867 3.512 5.72 3.256 6.04C3 6.36 2.62667 6.52 2.136 6.52C1.66667 6.52 1.29333 6.36 1.016 6.04C0.738667 5.69867 0.6 5.272 0.6 4.76C0.6 4.09867 0.856 3.40533 1.368 2.68C1.90133 1.95467 2.66933 1.34667 3.672 0.855999C4.696 0.343999 5.90133 0.0879993 7.288 0.0879993C9.208 0.0879993 10.808 0.557332 12.088 1.496C13.368 2.41333 14.008 3.87467 14.008 5.88C14.008 7.01067 13.5067 8.28 12.504 9.688C11.5227 11.096 9.93333 12.696 7.736 14.488C6.24267 15.7253 5.03733 16.8667 4.12 17.912C3.224 18.9573 2.70133 19.8427 2.552 20.568L8.216 20.728C8.68533 20.7493 9.32533 20.76 10.136 20.76C11.3093 20.76 12.1733 20.6107 12.728 20.312C13.2827 20.0133 13.56 19.416 13.56 18.52H14.52L14.328 23H0.472ZM26.1395 23.512C23.1742 23.512 21.0728 22.3813 19.8355 20.12C18.5982 17.8587 17.9795 15.1173 17.9795 11.896C17.9795 9.95467 18.2675 8.088 18.8435 6.296C19.4408 4.48267 20.3582 3 21.5955 1.848C22.8328 0.674666 24.3902 0.0879993 26.2675 0.0879993C28.2088 0.0879993 29.7768 0.663999 30.9715 1.816C32.1662 2.94667 33.0195 4.38667 33.5315 6.136C34.0435 7.88533 34.2995 9.752 34.2995 11.736C34.2995 13.656 34.0115 15.512 33.4355 17.304C32.8808 19.096 31.9848 20.5787 30.7475 21.752C29.5315 22.9253 27.9955 23.512 26.1395 23.512ZM26.3315 22.264C27.9955 22.264 29.1902 21.3147 29.9155 19.416C30.6408 17.496 31.0035 15.16 31.0035 12.408C31.0035 9.336 30.6302 6.72267 29.8835 4.568C29.1582 2.392 27.9315 1.304 26.2035 1.304C24.4968 1.304 23.2488 2.27467 22.4595 4.216C21.6702 6.15733 21.2755 8.49333 21.2755 11.224C21.2755 14.0827 21.6488 16.6427 22.3955 18.904C23.1635 21.144 24.4755 22.264 26.3315 22.264ZM46.0145 23.512C43.0492 23.512 40.9478 22.3813 39.7105 20.12C38.4732 17.8587 37.8545 15.1173 37.8545 11.896C37.8545 9.95467 38.1425 8.088 38.7185 6.296C39.3158 4.48267 40.2332 3 41.4705 1.848C42.7078 0.674666 44.2652 0.0879993 46.1425 0.0879993C48.0838 0.0879993 49.6518 0.663999 50.8465 1.816C52.0412 2.94667 52.8945 4.38667 53.4065 6.136C53.9185 7.88533 54.1745 9.752 54.1745 11.736C54.1745 13.656 53.8865 15.512 53.3105 17.304C52.7558 19.096 51.8598 20.5787 50.6225 21.752C49.4065 22.9253 47.8705 23.512 46.0145 23.512ZM46.2065 22.264C47.8705 22.264 49.0652 21.3147 49.7905 19.416C50.5158 17.496 50.8785 15.16 50.8785 12.408C50.8785 9.336 50.5052 6.72267 49.7585 4.568C49.0332 2.392 47.8065 1.304 46.0785 1.304C44.3718 1.304 43.1238 2.27467 42.3345 4.216C41.5452 6.15733 41.1505 8.49333 41.1505 11.224C41.1505 14.0827 41.5238 16.6427 42.2705 18.904C43.0385 21.144 44.3505 22.264 46.2065 22.264ZM63.1375 13.784L57.0575 13.816V11.896L63.1375 11.928V5.624H65.2175V11.928L71.2975 11.96V13.752L65.2175 13.784V20.376H63.1375V13.784Z" fill="#10375C"/>
</svg>
