<svg width="146" height="34" viewBox="0 0 146 34" fill="none" xmlns="http://www.w3.org/2000/svg">
<path d="M7.128 25.512C5.848 25.512 4.70667 25.288 3.704 24.84C2.72267 24.392 1.96533 23.8373 1.432 23.176C0.92 22.4933 0.664 21.8213 0.664 21.16C0.664 20.648 0.802667 20.232 1.08 19.912C1.35733 19.5707 1.74133 19.4 2.232 19.4C2.72267 19.4 3.07467 19.56 3.288 19.88C3.52267 20.1787 3.64 20.4987 3.64 20.84C3.64 21.2027 3.52267 21.6187 3.288 22.088C3.416 22.792 3.864 23.336 4.632 23.72C5.4 24.0827 6.21067 24.264 7.064 24.264C8.57867 24.264 9.72 23.7413 10.488 22.696C11.2773 21.6507 11.672 20.3707 11.672 18.856C11.672 14.6533 10.0187 12.552 6.712 12.552C6.11467 12.552 5.38933 12.6587 4.536 12.872C3.68267 13.0853 3 13.352 2.488 13.672L1.592 12.84L1.528 2.6H9.816C11.0107 2.6 11.8427 2.44 12.312 2.12C12.7813 1.8 13.016 1.26667 13.016 0.519999H13.88L13.688 4.744L3 4.968V12.008C3.59733 11.752 4.30133 11.5387 5.112 11.368C5.944 11.1973 6.78667 11.112 7.64 11.112C9.304 11.112 10.68 11.4533 11.768 12.136C12.8773 12.8187 13.688 13.704 14.2 14.792C14.7333 15.88 15 17.0427 15 18.28C15 19.7947 14.6373 21.1067 13.912 22.216C13.208 23.304 12.2587 24.1253 11.064 24.68C9.86933 25.2347 8.55733 25.512 7.128 25.512ZM26.3583 25.512C23.3929 25.512 21.2916 24.3813 20.0543 22.12C18.8169 19.8587 18.1983 17.1173 18.1983 13.896C18.1983 11.9547 18.4863 10.088 19.0623 8.296C19.6596 6.48267 20.5769 5 21.8143 3.848C23.0516 2.67467 24.6089 2.088 26.4863 2.088C28.4276 2.088 29.9956 2.664 31.1903 3.816C32.3849 4.94667 33.2383 6.38667 33.7503 8.136C34.2623 9.88533 34.5183 11.752 34.5183 13.736C34.5183 15.656 34.2303 17.512 33.6543 19.304C33.0996 21.096 32.2036 22.5787 30.9663 23.752C29.7503 24.9253 28.2143 25.512 26.3583 25.512ZM26.5503 24.264C28.2143 24.264 29.4089 23.3147 30.1343 21.416C30.8596 19.496 31.2223 17.16 31.2223 14.408C31.2223 11.336 30.8489 8.72267 30.1023 6.568C29.3769 4.392 28.1503 3.304 26.4223 3.304C24.7156 3.304 23.4676 4.27467 22.6783 6.216C21.8889 8.15733 21.4943 10.4933 21.4943 13.224C21.4943 16.0827 21.8676 18.6427 22.6143 20.904C23.3823 23.144 24.6943 24.264 26.5503 24.264ZM46.2333 25.512C43.2679 25.512 41.1666 24.3813 39.9293 22.12C38.6919 19.8587 38.0733 17.1173 38.0733 13.896C38.0733 11.9547 38.3613 10.088 38.9373 8.296C39.5346 6.48267 40.4519 5 41.6893 3.848C42.9266 2.67467 44.4839 2.088 46.3613 2.088C48.3026 2.088 49.8706 2.664 51.0653 3.816C52.2599 4.94667 53.1133 6.38667 53.6253 8.136C54.1373 9.88533 54.3933 11.752 54.3933 13.736C54.3933 15.656 54.1053 17.512 53.5293 19.304C52.9746 21.096 52.0786 22.5787 50.8413 23.752C49.6253 24.9253 48.0893 25.512 46.2333 25.512ZM46.4253 24.264C48.0893 24.264 49.2839 23.3147 50.0093 21.416C50.7346 19.496 51.0973 17.16 51.0973 14.408C51.0973 11.336 50.7239 8.72267 49.9773 6.568C49.2519 4.392 48.0253 3.304 46.2973 3.304C44.5906 3.304 43.3426 4.27467 42.5533 6.216C41.7639 8.15733 41.3693 10.4933 41.3693 13.224C41.3693 16.0827 41.7426 18.6427 42.4893 20.904C43.2573 23.144 44.5693 24.264 46.4253 24.264ZM76.5945 21.32C74.9732 17.7147 73.7145 14.8773 72.8185 12.808C71.9225 10.7173 71.0478 8.52 70.1945 6.216L70.1625 7.624C69.9705 13.8747 69.8532 18.3333 69.8105 21C69.8105 21.32 69.7998 21.5547 69.7785 21.704C69.7785 22.4293 69.7465 23.1013 69.6825 23.72L72.0825 23.592V25H65.9705V23.944C66.8665 23.9227 67.4425 23.6773 67.6985 23.208C67.9758 22.7173 68.1358 21.9813 68.1785 21L68.8825 3.88L66.5785 3.976V2.6H71.4745L75.8265 12.648C77.4052 16.36 78.6212 19.176 79.4745 21.096H79.5385C79.7945 20.456 80.3385 19.08 81.1705 16.968C81.9812 14.92 82.9092 12.6693 83.9545 10.216C85.1705 7.35733 86.2158 4.81867 87.0905 2.6H91.8265V3.656C91.0585 3.63467 90.4932 3.848 90.1305 4.296C89.7678 4.72267 89.5865 5.45867 89.5865 6.504L89.6185 7.144L90.4505 21.704C90.4932 22.1947 90.5145 22.856 90.5145 23.688L92.8505 23.592V25H85.6825V23.944C86.5145 23.9227 87.0798 23.688 87.3785 23.24C87.6772 22.7707 87.8265 22.0453 87.8265 21.064C87.8265 20.6587 87.8158 20.3493 87.7945 20.136L86.9625 6.504C86.9198 6.61067 86.8558 6.74933 86.7705 6.92C86.7065 7.09067 86.6318 7.29333 86.5465 7.528L79.3465 25.32H78.3865L76.5945 21.32ZM102.898 25.512C102.044 25.512 101.202 25.3627 100.37 25.064C99.5375 24.7653 98.8122 24.264 98.1935 23.56L97.4255 25H96.3055L96.3695 5C96.3695 4.18933 96.4015 3.496 96.4655 2.92L94.1935 3.048V1.704C95.4735 1.704 96.3802 1.62933 96.9135 1.48C97.4682 1.33067 97.8948 1.11733 98.1935 0.839998H99.1215V10.376C99.7188 9.77867 100.423 9.32 101.234 9C102.066 8.65867 102.972 8.488 103.954 8.488C105.319 8.488 106.556 8.81867 107.666 9.48C108.775 10.1413 109.639 11.0907 110.258 12.328C110.898 13.5653 111.218 14.9947 111.218 16.616C111.218 18.3867 110.834 19.944 110.066 21.288C109.298 22.632 108.274 23.6773 106.994 24.424C105.714 25.1493 104.348 25.512 102.898 25.512ZM102.898 24.2C104.434 24.2 105.65 23.5813 106.546 22.344C107.463 21.0853 107.922 19.4427 107.922 17.416C107.922 15.176 107.506 13.3947 106.674 12.072C105.842 10.728 104.615 10.056 102.994 10.056C102.29 10.056 101.586 10.2267 100.882 10.568C100.199 10.888 99.6122 11.3253 99.1215 11.88V19.976C99.1215 22.792 100.38 24.2 102.898 24.2ZM113.683 32.2C114.301 32.2 114.739 32.04 114.995 31.72C115.272 31.4213 115.432 31.0373 115.475 30.568C115.517 30.12 115.549 29.3627 115.571 28.296L115.635 12.84C115.635 11.944 115.677 11.2507 115.763 10.76L113.491 10.888V9.544C114.749 9.544 115.613 9.48 116.083 9.352C116.552 9.20267 116.936 8.97867 117.235 8.68H118.195C118.28 9.72533 118.323 10.3013 118.323 10.408C118.963 9.832 119.731 9.37333 120.627 9.032C121.523 8.66933 122.408 8.488 123.283 8.488C124.541 8.488 125.704 8.81867 126.771 9.48C127.837 10.12 128.691 11.048 129.331 12.264C129.992 13.4587 130.323 14.8453 130.323 16.424C130.323 18.1947 129.949 19.7733 129.203 21.16C128.456 22.5253 127.453 23.592 126.195 24.36C124.957 25.128 123.613 25.512 122.163 25.512C120.691 25.512 119.411 25.16 118.323 24.456V29.768C118.323 30.728 118.28 31.4533 118.195 31.944L120.211 31.848V33.16H113.683V32.2ZM122.099 24.232C123.101 24.232 123.965 23.9227 124.691 23.304C125.437 22.6853 126.013 21.8213 126.419 20.712C126.824 19.6027 127.027 18.344 127.027 16.936C127.027 15.016 126.611 13.3947 125.779 12.072C124.968 10.728 123.752 10.056 122.131 10.056C121.427 10.056 120.744 10.2267 120.083 10.568C119.421 10.9093 118.845 11.336 118.355 11.848C118.376 11.9973 118.387 12.648 118.387 13.8L118.355 22.984C119.443 23.816 120.691 24.232 122.099 24.232ZM139.624 25.512C138.622 25.512 137.704 25.3733 136.872 25.096C136.04 24.84 135.326 24.5093 134.728 24.104L134.856 25.224H133.512L133.32 19.72H134.312C134.355 20.5947 134.59 21.3733 135.016 22.056C135.464 22.7387 136.04 23.2827 136.744 23.688C137.47 24.072 138.238 24.264 139.048 24.264C139.966 24.264 140.776 24.0507 141.48 23.624C142.206 23.176 142.568 22.5467 142.568 21.736C142.568 21.1387 142.387 20.6373 142.024 20.232C141.683 19.8267 141.246 19.496 140.712 19.24C140.2 18.9627 139.475 18.6427 138.536 18.28C137.406 17.8533 136.499 17.4587 135.816 17.096C135.134 16.712 134.547 16.2 134.056 15.56C133.566 14.92 133.32 14.1093 133.32 13.128C133.32 12.424 133.491 11.72 133.832 11.016C134.174 10.312 134.75 9.71467 135.56 9.224C136.371 8.73333 137.448 8.488 138.792 8.488C139.454 8.488 140.126 8.59467 140.808 8.808C141.512 9.02133 142.163 9.37333 142.76 9.864L142.696 8.648H144.04V14.248H143.016C142.952 13.0107 142.568 11.944 141.864 11.048C141.182 10.1307 140.211 9.672 138.952 9.672C137.992 9.672 137.224 9.91733 136.648 10.408C136.094 10.8773 135.816 11.4427 135.816 12.104C135.816 12.7227 135.998 13.2453 136.36 13.672C136.744 14.0987 137.214 14.4613 137.768 14.76C138.323 15.0587 139.07 15.3893 140.008 15.752C141.118 16.2 142.014 16.616 142.696 17C143.379 17.384 143.955 17.896 144.424 18.536C144.915 19.1547 145.16 19.912 145.16 20.808C145.16 21.832 144.894 22.696 144.36 23.4C143.848 24.104 143.166 24.6373 142.312 25C141.48 25.3413 140.584 25.512 139.624 25.512Z" fill="#10375C"/>
</svg>
