<svg width="54" height="26" viewBox="0 0 54 26" fill="none" xmlns="http://www.w3.org/2000/svg">
<path d="M7.128 25.512C5.848 25.512 4.70667 25.288 3.704 24.84C2.72267 24.392 1.96533 23.8373 1.432 23.176C0.92 22.4933 0.664 21.8213 0.664 21.16C0.664 20.648 0.802667 20.232 1.08 19.912C1.35733 19.5707 1.74133 19.4 2.232 19.4C2.72267 19.4 3.07467 19.56 3.288 19.88C3.52267 20.1787 3.64 20.4987 3.64 20.84C3.64 21.2027 3.52267 21.6187 3.288 22.088C3.416 22.792 3.864 23.336 4.632 23.72C5.4 24.0827 6.21067 24.264 7.064 24.264C8.57867 24.264 9.72 23.7413 10.488 22.696C11.2773 21.6507 11.672 20.3707 11.672 18.856C11.672 14.6533 10.0187 12.552 6.712 12.552C6.11467 12.552 5.38933 12.6587 4.536 12.872C3.68267 13.0853 3 13.352 2.488 13.672L1.592 12.84L1.528 2.6H9.816C11.0107 2.6 11.8427 2.44 12.312 2.12C12.7813 1.8 13.016 1.26667 13.016 0.519999H13.88L13.688 4.744L3 4.968V12.008C3.59733 11.752 4.30133 11.5387 5.112 11.368C5.944 11.1973 6.78667 11.112 7.64 11.112C9.304 11.112 10.68 11.4533 11.768 12.136C12.8773 12.8187 13.688 13.704 14.2 14.792C14.7333 15.88 15 17.0427 15 18.28C15 19.7947 14.6373 21.1067 13.912 22.216C13.208 23.304 12.2587 24.1253 11.064 24.68C9.86933 25.2347 8.55733 25.512 7.128 25.512ZM18.1663 23.944C18.9129 23.9227 19.4463 23.752 19.7663 23.432C20.0863 23.112 20.2676 22.7387 20.3103 22.312C20.3529 21.864 20.3743 21.096 20.3743 20.008V6.184C20.3743 5.288 20.4063 4.52 20.4703 3.88L18.1663 4.008V2.6H25.3663V3.656C24.6196 3.67733 24.0863 3.848 23.7663 4.168C23.4463 4.488 23.2649 4.872 23.2223 5.32C23.1796 5.74667 23.1583 6.504 23.1583 7.592V12.84H25.5583L29.5583 6.536C30.3476 5.34133 31.1049 4.44533 31.8303 3.848L29.8783 3.912V2.6H36.7583V3.656C35.7769 3.74133 34.9449 3.90133 34.2623 4.136C33.6009 4.37067 32.9503 4.78667 32.3103 5.384C31.6703 5.98133 30.9983 6.84533 30.2943 7.976L27.1583 12.968C27.6276 13.2667 28.0329 13.5973 28.3743 13.96C28.7156 14.3013 29.0143 14.6533 29.2703 15.016C29.5476 15.3573 29.7289 15.5813 29.8143 15.688L33.3983 20.456C34.1876 21.5013 34.8383 22.2693 35.3503 22.76C35.8836 23.2507 36.3423 23.5707 36.7263 23.72C37.1103 23.8693 37.5689 23.944 38.1023 23.944V25H34.1983C33.6436 25 32.5663 23.9547 30.9663 21.864L27.1263 16.68C26.6143 16.0187 26.1663 15.4747 25.7823 15.048C25.4196 14.6213 25.0676 14.3013 24.7263 14.088L23.1583 14.12V21.192C23.1583 22.3227 23.1263 23.1653 23.0623 23.72L25.3663 23.592V25H18.1663V23.944ZM45.45 15.784L39.37 15.816V13.896L45.45 13.928V7.624H47.53V13.928L53.61 13.96V15.752L47.53 15.784V22.376H45.45V15.784Z" fill="#10375C"/>
</svg>
